# xmcd CD database file
#
# Track frame offsets:
#	150
#	20255
#	42908
#	51570
#	72287
#	83037
#	109269
#	119179
#	133647
#	153226
#	176091
#	198175
#	227248
#	243951
#	257458
#	278589
#	290704
#	306694
#	315455
#	329039
#	344373
#
# Disc length: 4740 seconds
#
# Revision: 3
# Processed by: cddbd v1.5.2PL0 Copyright (c) Steve Scherf et al.
# Submitted via: CDex 1.51
#
DISCID=40128215
DTITLE=Rita Falk - Schweinskopf al Dente CD3
DYEAR=2011
DGENRE=Hörbuch
TTITLE0=Schweinskopf al Dente CD3-01
TTITLE1=Schweinskopf al Dente CD3-02
TTITLE2=Schweinskopf al Dente CD3-03
TTITLE3=Schweinskopf al Dente CD3-04
TTITLE4=Schweinskopf al Dente CD3-05
TTITLE5=Schweinskopf al Dente CD3-06
TTITLE6=Schweinskopf al Dente CD3-07
TTITLE7=Schweinskopf al Dente CD3-08
TTITLE8=Schweinskopf al Dente CD3-09
TTITLE9=Schweinskopf al Dente CD3-10
TTITLE10=Schweinskopf al Dente CD3-11
TTITLE11=Schweinskopf al Dente CD3-12
TTITLE12=Schweinskopf al Dente CD3-13
TTITLE13=Schweinskopf al Dente CD3-14
TTITLE14=Schweinskopf al Dente CD3-15
TTITLE15=Schweinskopf al Dente CD3-16
TTITLE16=Schweinskopf al Dente CD3-17
TTITLE17=Schweinskopf al Dente CD3-18
TTITLE18=Schweinskopf al Dente CD3-19
TTITLE19=Schweinskopf al Dente CD3-20
TTITLE20=Schweinskopf al Dente CD3-21
EXTD=YEAR: 2011
EXTT0=
EXTT1=
EXTT2=
EXTT3=
EXTT4=
EXTT5=
EXTT6=
EXTT7=
EXTT8=
EXTT9=
EXTT10=
EXTT11=
EXTT12=
EXTT13=
EXTT14=
EXTT15=
EXTT16=
EXTT17=
EXTT18=
EXTT19=
EXTT20=
PLAYORDER=
